<svg viewBox="0 0 14 14" xmlns="http://www.w3.org/2000/svg" xmlns:xlink="http://www.w3.org/1999/xlink"><radialGradient id="a" cx="130.802" cy="895.86902" gradientTransform="matrix(.539 -.842 .618 .395 -492.923 652.145)" gradientUnits="userSpaceOnUse" r="968.776"><stop offset="0" stop-color="#f9ed32"/><stop offset=".53" stop-color="#ff4700"/><stop offset=".72" stop-color="#ee2a7b"/><stop offset="1" stop-color="#002aff"/></radialGradient><g transform="matrix(.0196 0 0 .0196 1.000001 -2.52941)"><path d="m43.7 180h524.6c24.2 0 43.7 19.6 43.7 43.7v524.6c0 24.2-19.6 43.7-43.7 43.7h-524.6c-24.1 0-43.7-19.6-43.7-43.7v-524.6c0-24.1 19.6-43.7 43.7-43.7z" fill="url(#a)"/><g fill="#fff" stroke="#fff" stroke-miterlimit="10"><path d="m413.9 721.5h-215.8c-70.3 0-127.6-57.2-127.6-127.6v-215.8c0-70.3 57.2-127.6 127.6-127.6h215.9c70.3 0 127.6 57.2 127.6 127.6v215.9c-.1 70.3-57.3 127.5-127.7 127.5zm-215.8-431.7c-48.7 0-88.3 39.6-88.3 88.3v215.9c0 48.7 39.6 88.3 88.3 88.3h215.9c48.7 0 88.3-39.6 88.3-88.3v-215.9c0-48.7-39.6-88.3-88.3-88.3zm107.9 314c-64.9 0-117.8-52.8-117.8-117.8 0-64.9 52.8-117.8 117.8-117.8 64.9 0 117.8 52.8 117.8 117.8 0 64.9-52.9 117.8-117.8 117.8zm0-196.3c-43.3 0-78.5 35.2-78.5 78.5s35.2 78.5 78.5 78.5 78.5-35.2 78.5-78.5-35.2-78.5-78.5-78.5z" stroke-width="8"/><circle cx="427.70001" cy="364.29999" r="25" stroke-width="9"/></g></g></svg>